<svg width="1137" height="1099" viewBox="0 0 1137 1099" fill="none" xmlns="http://www.w3.org/2000/svg">
<path opacity="0.01" d="M413.554 416.187C449.089 399.796 524.277 401.728 540.745 540.591C557.214 679.454 632.773 698.383 668.494 690.491C836.802 653.301 895.153 748.371 880.805 850.707C866.457 953.042 1060.15 919.928 1136.82 907.603" stroke="#137BD4"/>
<path opacity="0.0204082" d="M409.652 405.812C445.888 390.931 520.885 395.983 530.983 535.244C541.081 674.504 615.672 696.534 651.706 690.141C821.484 660.022 875.41 757.32 856.404 858.848C837.397 960.376 1032.34 935.378 1109.47 926.264" stroke="#137BD4"/>
<path opacity="0.0408163" d="M406.302 395.126C443.171 381.783 517.84 389.943 521.563 529.327C525.286 668.712 598.774 693.797 635.052 688.916C805.985 665.919 855.396 765.253 831.777 865.776C808.157 966.298 1003.99 949.458 1081.43 943.571" stroke="#137BD4"/>
<path opacity="0.0612245" d="M403.526 384.152C440.957 372.372 515.16 383.622 512.517 522.858C509.874 662.093 582.125 690.182 618.581 686.821C790.35 670.988 835.165 772.162 806.987 871.482C778.809 970.803 975.165 962.149 1052.78 959.497" stroke="#137BD4"/>
<path opacity="0.0816327" d="M401.329 372.916C439.253 362.722 512.854 377.037 503.865 515.852C494.876 654.667 565.76 685.702 602.325 683.868C774.61 675.225 814.759 778.04 782.086 875.965C749.412 973.89 945.928 973.435 1023.57 974.022" stroke="#137BD4"/>
<path opacity="0.102041" d="M399.724 361.442C438.069 352.852 510.933 370.204 495.631 508.328C480.33 646.451 549.718 680.371 586.324 680.066C758.805 678.627 794.223 782.881 757.128 879.22C720.032 975.559 916.341 983.3 993.868 987.124" stroke="#137BD4"/>
<path opacity="0.122449" d="M398.724 349.756C437.417 342.787 509.411 363.141 487.842 500.304C466.273 637.467 534.041 674.205 570.621 675.429C742.975 681.194 773.611 786.685 732.173 881.251C690.735 975.817 886.475 991.736 963.742 998.787" stroke="#137BD4"/>
<path opacity="0.142857" d="M398.339 337.882C437.307 332.547 508.298 355.862 480.52 491.799C452.741 627.736 518.767 667.22 555.252 669.969C727.159 682.926 752.969 789.448 707.278 882.058C661.587 974.667 856.394 998.731 933.258 1009" stroke="#137BD4"/>
<path opacity="0.163265" d="M398.569 325.847C437.739 322.156 507.599 348.387 473.68 482.834C439.761 617.281 503.926 659.434 540.249 663.705C711.39 683.826 732.338 791.172 682.492 881.646C632.646 972.121 826.158 1004.28 902.476 1017.74" stroke="#137BD4"/>
<path opacity="0.183673" d="M399.427 313.678C438.724 311.638 507.325 340.733 467.347 473.431C427.369 606.13 489.559 650.869 525.651 656.652C695.708 683.898 711.77 791.86 657.874 880.026C603.978 968.191 795.837 1008.38 871.468 1025.01" stroke="#137BD4"/>
<path opacity="0.204082" d="M400.921 301.401C440.272 301.016 507.488 332.919 461.544 463.613C415.6 594.307 475.704 641.547 511.499 648.83C680.155 683.147 691.316 791.519 633.483 877.205C575.65 962.891 765.501 1011.04 840.305 1030.8" stroke="#137BD4"/>
<path opacity="0.22449" d="M403.049 289.044C442.379 290.314 508.089 324.963 456.283 453.402C404.478 581.84 462.389 631.49 497.821 640.26C664.762 681.582 671.015 790.154 609.366 873.197C547.717 956.239 735.208 1012.25 809.047 1035.1" stroke="#137BD4"/>
<path opacity="0.244898" d="M405.817 276.631C445.052 279.554 509.135 316.883 451.585 442.821C394.034 568.758 449.649 620.722 484.651 630.962C649.568 679.21 650.916 787.774 585.579 868.014C520.243 948.254 705.027 1012.02 777.764 1037.92" stroke="#137BD4"/>
<path opacity="0.265306" d="M409.228 264.191C448.295 268.761 510.635 308.7 447.466 431.895C384.296 555.09 437.518 609.27 472.025 620.96C634.611 676.042 631.067 784.392 562.178 861.676C493.288 938.96 675.025 1010.36 746.525 1039.26" stroke="#137BD4"/>
<path opacity="0.285714" d="M413.28 251.753C452.103 257.961 512.588 300.432 443.937 420.651C375.287 540.87 426.021 597.162 459.969 610.28C619.923 672.091 611.509 780.02 539.209 854.201C466.908 928.382 645.26 1007.27 715.393 1039.13" stroke="#137BD4"/>
<path opacity="0.306122" d="M417.971 239.34C456.478 247.175 514.998 292.099 441.014 409.114C367.03 526.128 415.187 584.425 448.513 598.947C605.538 667.368 592.285 774.671 516.723 845.609C441.16 916.546 615.798 1002.79 684.433 1037.53" stroke="#137BD4"/>
<path opacity="0.326531" d="M423.305 226.983C461.424 236.429 517.872 283.72 438.713 397.309C359.554 510.898 405.05 571.09 437.693 586.987C591.498 661.891 573.446 768.365 494.776 835.925C416.106 903.484 586.707 996.907 653.718 1034.47" stroke="#137BD4"/>
<path opacity="0.346939" d="M429.272 214.705C466.931 225.746 521.206 275.315 437.039 385.264C352.872 495.213 395.629 557.186 427.528 574.429C577.827 655.673 555.026 761.118 473.409 825.172C391.791 889.226 558.042 989.657 623.304 1029.97" stroke="#137BD4"/>
<path opacity="0.367347" d="M435.876 202.536C473.003 215.15 525.007 266.903 436.01 373.006C347.012 479.109 386.955 542.747 418.051 561.303C564.566 648.733 537.074 752.95 452.676 813.38C368.277 873.809 529.87 981.057 593.264 1024.04" stroke="#137BD4"/>
<path opacity="0.387755" d="M443.102 190.502C479.627 204.665 529.267 258.506 435.626 360.564C341.984 462.622 379.045 527.805 409.28 547.639C551.74 641.092 519.624 743.886 432.615 800.578C345.607 857.269 502.244 971.132 563.653 1016.71" stroke="#137BD4"/>
<path opacity="0.408163" d="M450.951 178.628C486.805 194.313 533.991 250.14 435.901 347.964C337.81 445.788 371.925 512.393 401.244 533.468C539.384 632.767 502.72 733.947 413.278 786.795C323.836 839.643 475.228 959.908 534.54 1007.99" stroke="#137BD4"/>
<path opacity="0.428571" d="M459.412 166.942C494.528 184.12 539.176 241.828 436.839 335.236C334.503 428.644 365.614 496.548 393.962 518.824C527.528 623.782 486.4 723.159 394.704 772.066C303.009 820.974 448.879 947.414 505.983 997.918" stroke="#137BD4"/>
<path opacity="0.44898" d="M468.472 155.467C502.784 174.105 544.814 233.587 438.442 322.407C332.071 411.227 360.127 480.303 387.451 503.738C516.195 614.159 470.696 711.548 376.932 756.426C283.168 801.303 423.246 933.681 478.039 986.507" stroke="#137BD4"/>
<path opacity="0.469388" d="M478.131 144.231C511.574 164.294 550.912 225.438 440.723 309.508C330.535 393.578 355.489 463.696 381.74 488.247C505.424 603.922 455.654 699.144 360.01 739.91C264.366 780.676 398.396 918.743 450.776 973.793" stroke="#137BD4"/>
<path opacity="0.489796" d="M488.374 133.258C520.885 154.709 557.46 217.401 443.681 296.567C329.901 375.733 351.713 446.764 376.841 472.384C495.237 593.097 441.305 685.978 343.973 722.559C246.641 759.14 374.376 902.638 424.248 959.808" stroke="#137BD4"/>
<path opacity="0.510204" d="M499.179 122.572C530.696 145.368 564.444 209.491 447.306 283.611C330.167 357.731 348.801 429.543 372.76 456.184C485.65 581.708 427.672 672.077 328.847 704.408C230.021 736.74 351.227 885.4 398.499 944.583" stroke="#137BD4"/>
<path opacity="0.530612" d="M510.546 112.196C541.01 136.296 571.871 201.731 451.611 270.672C331.351 339.613 346.779 412.072 369.526 439.684C476.701 569.784 414.8 657.476 314.679 685.502C214.557 713.528 329.012 867.072 373.598 928.157" stroke="#137BD4"/>
<path opacity="0.55102" d="M522.45 102.155C551.803 127.513 579.725 194.139 456.587 257.778C333.449 321.417 345.648 394.39 367.139 422.922C468.402 557.355 402.709 642.211 301.492 665.884C200.274 689.556 307.769 847.697 349.587 910.57" stroke="#137BD4"/>
<path opacity="0.571429" d="M534.885 92.4702C563.072 119.038 588.004 186.73 462.237 244.956C336.469 303.183 345.422 376.535 365.619 405.933C460.783 544.446 391.436 626.314 289.324 645.594C187.211 664.873 287.549 827.316 326.523 891.859" stroke="#137BD4"/>
<path opacity="0.591837" d="M547.828 83.1642C574.796 110.892 596.697 179.525 468.553 232.237C340.409 284.95 346.104 358.546 364.97 388.755C453.86 531.09 381.003 609.822 278.199 624.679C175.395 639.536 268.393 805.977 304.452 872.07" stroke="#137BD4"/>
<path opacity="0.612245" d="M561.262 74.2571C586.96 103.092 605.791 172.539 475.528 219.648C345.265 266.758 347.698 340.462 365.198 371.426C447.65 517.317 371.433 592.773 268.141 603.185C164.849 613.597 250.338 783.725 283.416 851.246" stroke="#137BD4"/>
<path opacity="0.632653" d="M575.165 65.7699C599.545 95.6576 615.274 165.79 483.153 207.218C351.031 248.645 350.203 322.323 366.304 353.983C442.169 503.157 362.747 575.203 259.172 581.158C155.598 587.113 233.422 760.612 263.46 829.434" stroke="#137BD4"/>
<path opacity="0.653061" d="M589.526 57.7234C612.542 88.6075 625.144 159.296 491.427 194.974C357.711 230.653 353.629 304.169 368.302 336.467C437.439 488.645 354.976 557.155 251.323 558.649C147.669 560.142 217.688 736.688 244.631 806.682" stroke="#137BD4"/>
<path opacity="0.673469" d="M604.322 50.1339C625.93 81.9561 635.385 153.069 500.34 182.944C365.295 212.818 357.971 286.037 371.19 318.913C433.473 473.811 348.135 538.665 244.608 535.702C141.082 532.74 203.168 712.003 226.967 783.04" stroke="#137BD4"/>
<path opacity="0.693878" d="M619.53 43.0214C639.69 75.7216 645.983 147.129 509.877 171.155C373.771 195.181 363.225 267.97 374.965 301.361C430.281 458.69 342.24 519.775 239.044 512.37C135.847 504.965 189.889 686.612 210.503 758.559" stroke="#137BD4"/>
<path opacity="0.714286" d="M635.13 36.4016C653.803 69.9181 656.926 141.487 520.029 159.633C383.133 177.778 369.389 250.004 379.629 283.848C427.876 443.315 337.31 500.527 234.647 488.702C131.984 476.877 177.885 660.57 195.276 733.293" stroke="#137BD4"/>
<path opacity="0.734694" d="M651.093 30.2922C668.245 64.5615 668.194 136.161 530.777 148.405C393.36 160.648 376.448 232.18 385.17 266.415C426.262 427.721 333.351 480.964 231.423 464.749C129.495 448.535 167.173 633.932 181.311 707.297" stroke="#137BD4"/>
<path opacity="0.755102" d="M667.406 24.7057C683.004 59.6633 679.784 131.162 542.117 137.494C404.45 143.827 384.407 214.534 391.594 249.095C425.457 411.941 330.387 461.125 229.394 440.561C128.401 419.997 157.79 606.754 168.649 680.623" stroke="#137BD4"/>
<path opacity="0.77551" d="M684.039 19.6585C698.054 55.2384 691.672 126.504 554.026 126.928C416.381 127.352 393.249 197.106 398.888 231.93C425.461 396.012 328.42 441.055 228.559 416.191C128.698 391.326 149.748 579.094 157.31 653.331" stroke="#137BD4"/>
<path opacity="0.795918" d="M700.968 15.1616C713.373 51.2965 703.845 122.199 566.49 116.728C429.136 111.257 402.962 179.932 407.045 214.954C426.281 379.965 327.459 420.797 228.926 391.687C130.393 362.578 143.068 551.01 147.32 625.477" stroke="#137BD4"/>
<path opacity="0.816327" d="M718.17 11.2291C728.943 47.8508 716.289 118.259 579.494 106.919C442.699 95.5797 413.537 163.052 416.055 198.206C427.92 363.84 327.514 400.394 230.501 367.105C133.488 333.816 137.767 522.561 138.703 597.12" stroke="#137BD4"/>
<path opacity="0.836735" d="M735.612 7.8715C744.732 44.9108 728.978 114.697 593.01 97.5248C457.042 80.353 424.949 146.501 425.899 181.721C430.374 347.669 328.581 379.891 233.276 342.495C137.971 305.099 133.851 493.808 131.471 568.32" stroke="#137BD4"/>
<path opacity="0.857143" d="M753.28 5.09708C760.729 42.4842 741.907 111.52 607.031 88.5641C472.154 65.6086 437.195 130.313 436.575 165.534C433.655 331.488 330.672 359.329 237.261 317.908C143.85 276.486 131.341 464.808 125.651 539.134" stroke="#137BD4"/>
<path opacity="0.877551" d="M771.139 2.91603C776.903 40.5803 755.052 108.739 621.528 80.0595C488.005 51.38 450.249 114.524 448.061 149.681C437.752 315.332 333.781 338.753 242.444 293.395C151.108 248.037 130.238 435.622 121.25 509.626" stroke="#137BD4"/>
<path opacity="0.897959" d="M789.164 1.33502C793.233 39.2054 768.394 106.363 636.483 72.0301C504.572 37.6972 464.092 99.1686 460.34 134.196C442.665 299.234 337.907 318.206 248.822 269.008C159.737 219.809 130.548 406.311 118.28 479.855" stroke="#137BD4"/>
<path opacity="0.918367" d="M807.329 0.361294C809.696 38.3662 781.919 104.4 651.874 64.4955C521.83 24.591 478.705 84.2796 473.397 119.112C448.391 283.232 343.049 297.732 256.388 244.797C169.726 191.863 132.276 376.935 116.751 449.883" stroke="#137BD4"/>
<path opacity="0.938776" d="M825.603 -0.000114277C826.262 38.0677 795.6 102.857 667.673 57.4736C539.747 12.0898 494.059 69.8893 487.206 104.462C454.917 267.359 349.195 277.374 265.124 220.814C181.052 164.254 135.414 347.553 116.664 419.771" stroke="#137BD4"/>
<path opacity="0.959184" d="M843.962 0.255041C842.913 38.3139 809.425 101.741 683.862 50.9814C558.298 0.221255 510.137 56.0288 501.752 90.2776C462.243 251.648 356.344 257.174 275.024 197.107C193.704 137.039 139.965 318.227 118.026 389.58" stroke="#137BD4"/>
<path opacity="0.979592" d="M862.377 1.12832C859.622 39.1063 823.373 101.057 700.413 45.0333C577.453 -10.9898 526.91 42.7269 517.009 76.5881C470.356 236.133 364.482 237.174 286.07 173.724C207.657 110.274 145.921 289.015 120.835 359.371" stroke="#137BD4"/>
<path d="M880.82 2.62369C876.364 40.4492 837.422 100.809 717.301 39.6465C597.18 -21.5164 544.352 30.0146 532.954 63.4254C479.246 220.848 373.6 217.416 298.245 150.715C222.889 84.0137 153.274 259.978 125.088 329.207" stroke="#137BD4"/>
</svg>
