<svg width="1280" height="598" viewBox="0 0 1280 598" fill="none" xmlns="http://www.w3.org/2000/svg">
<path d="M-34 22.1885C-2.31276 12.182 30.6647 7.52 63.7178 4.77827C95.4439 2.14661 127.422 0.995726 159.229 3.06177C199.78 5.6959 248.644 10.0344 285.023 30.2805C310.901 44.6822 323.95 69.9247 329.162 98.3274C343.755 177.859 314.899 256.018 286.127 328.706C268.618 372.938 215.907 460.409 268.104 501.582C292.833 521.088 329.241 524.343 358.465 526.716C403.928 530.408 440.042 528.276 485.486 523.161C644.19 505.295 793.19 437.173 952.496 424.094C988.053 421.175 1029.28 420.28 1061.13 439.42C1092.63 458.36 1106.82 494.919 1122.06 526.348C1131.15 545.098 1140.16 566.344 1157 579.805C1177.82 596.437 1207.57 597.301 1232.78 595.744C1287.71 592.35 1344.68 577.749 1396.09 558.471" stroke="#313131" stroke-opacity="0.19" stroke-width="3" stroke-linecap="round"/>
</svg>
