<svg width="1590" height="556" viewBox="0 0 1590 556" fill="none" xmlns="http://www.w3.org/2000/svg">
<path d="M1588.37 257.179C1564.16 282.71 1536.09 304.298 1506.99 324.265C1479.06 343.429 1450.16 361.446 1419.8 376.585C1381.1 395.886 1333.89 418.135 1290.23 419.964C1259.17 421.265 1234.52 406.349 1215.52 384.525C1162.3 323.415 1149.82 240.37 1140 162.107C1134.02 114.482 1138.88 10.6758 1070.18 2.79999C1037.63 -0.931393 1002.44 15.6269 974.31 29.1257C930.554 50.1255 898.329 71.192 858.994 99.809C721.627 199.747 618.332 338.045 478.017 434.159C446.698 455.611 409.137 478.33 370.214 478.702C331.698 479.069 300.339 454.96 270.576 435.851C252.821 424.452 233.896 410.846 211.636 408.154C184.133 404.828 156.272 419.916 133.817 434.678C84.8775 466.852 39.6553 509.821 1.90486 553.876" stroke="#313131" stroke-opacity="0.19" stroke-width="3" stroke-linecap="round"/>
</svg>
