<svg width="919" height="888" viewBox="0 0 919 888" fill="none" xmlns="http://www.w3.org/2000/svg">
<path opacity="0.01" d="M584.951 551.29C556.26 564.524 495.555 562.964 482.259 450.849C468.963 338.733 407.958 323.45 379.117 329.823C243.229 359.849 196.117 283.091 207.701 200.467C219.286 117.843 62.9004 144.579 0.999817 154.53" stroke="url(#paint0_linear_213_12)"/>
<path opacity="0.0204082" d="M588.101 559.666C558.845 571.681 498.294 567.602 490.141 455.166C481.988 342.73 421.765 324.943 392.672 330.104C255.596 354.422 212.057 275.866 227.403 193.894C242.748 111.922 85.3536 132.105 23.0824 139.463" stroke="url(#paint1_linear_213_12)"/>
<path opacity="0.0408163" d="M590.806 568.294C561.039 579.067 500.753 572.479 497.747 459.943C494.741 347.406 435.408 327.153 406.118 331.094C268.11 349.661 228.216 269.461 247.286 188.301C266.356 107.141 108.245 120.737 45.7186 125.491" stroke="url(#paint2_linear_213_12)"/>
<path opacity="0.0612245" d="M593.048 577.154C562.827 586.665 502.917 577.582 505.051 465.166C507.185 352.75 448.851 330.072 419.417 332.785C280.734 345.568 244.551 263.882 267.301 183.693C290.052 103.504 131.518 110.49 68.8526 112.632" stroke="url(#paint3_linear_213_12)"/>
<path opacity="0.0816327" d="M594.823 586.226C564.203 594.457 504.779 582.899 512.037 470.822C519.294 358.746 462.064 333.689 432.542 335.17C293.443 342.147 261.028 259.137 287.407 180.074C313.787 101.012 155.124 101.379 92.4366 100.905" stroke="url(#paint4_linear_213_12)"/>
<path opacity="0.102041" d="M596.117 595.49C565.158 602.425 506.329 588.415 518.683 476.897C531.037 365.379 475.015 337.993 445.459 338.239C306.202 339.401 277.605 255.228 307.556 177.446C337.506 99.6637 179.01 93.4137 116.416 90.3267" stroke="url(#paint5_linear_213_12)"/>
<path opacity="0.122449" d="M596.924 604.925C565.684 610.552 507.558 594.119 524.972 483.376C542.386 372.633 487.672 342.971 458.138 341.983C318.983 337.328 294.248 252.157 327.704 175.807C361.16 99.4559 203.124 86.6033 140.74 80.9103" stroke="url(#paint6_linear_213_12)"/>
<path opacity="0.142857" d="M597.237 614.512C565.775 618.819 508.457 599.995 530.885 490.242C553.313 380.49 500.005 348.611 470.548 346.391C331.753 335.93 310.915 249.926 347.805 175.155C384.695 100.384 227.412 80.9552 165.354 72.6679" stroke="url(#paint7_linear_213_12)"/>
<path opacity="0.163265" d="M597.05 624.228C565.425 627.208 509.022 606.03 536.407 497.48C563.793 388.93 511.987 354.897 482.661 351.449C344.485 335.203 327.571 248.535 367.816 175.487C408.061 102.439 251.823 76.4743 190.205 65.6093" stroke="url(#paint8_linear_213_12)"/>
<path opacity="0.183673" d="M596.357 634.053C564.629 635.7 509.242 612.21 541.519 505.072C573.797 397.934 523.586 361.812 494.446 357.143C357.145 335.145 344.177 247.978 387.692 176.795C431.206 105.613 276.303 73.1617 215.24 59.7405" stroke="url(#paint9_linear_213_12)"/>
<path opacity="0.204082" d="M595.152 643.966C563.38 644.277 509.111 618.519 546.205 512.999C583.3 407.48 534.773 369.339 505.873 363.458C369.703 335.751 360.692 248.255 407.386 179.073C454.079 109.892 300.797 71.0187 240.401 55.0672" stroke="url(#paint10_linear_213_12)"/>
<path opacity="0.22449" d="M593.432 653.943C561.677 652.917 508.625 624.942 550.451 521.243C592.278 417.545 545.522 377.458 516.915 370.378C382.13 337.015 377.081 249.356 426.856 182.309C476.63 115.262 325.253 70.0416 265.637 51.5907" stroke="url(#paint11_linear_213_12)"/>
<path opacity="0.244898" d="M591.199 663.965C559.521 661.605 507.781 631.466 554.247 529.787C600.712 428.107 555.809 386.152 527.55 377.885C394.399 338.93 393.31 251.278 446.062 186.494C498.814 121.709 349.622 70.2279 290.896 49.313" stroke="url(#paint12_linear_213_12)"/>
<path opacity="0.265306" d="M588.444 674.008C556.903 670.318 506.57 638.073 557.572 538.607C608.574 439.142 565.604 395.399 537.744 385.96C406.475 341.488 409.336 254.009 464.956 191.611C520.576 129.214 373.846 71.5696 316.117 48.2306" stroke="url(#paint13_linear_213_12)"/>
<path opacity="0.285714" d="M585.173 684.051C553.827 679.038 504.993 644.748 560.421 547.686C615.848 450.623 574.886 405.174 547.477 394.583C418.333 344.678 425.127 257.539 483.5 197.646C541.874 137.754 397.876 74.0575 341.253 48.3388" stroke="url(#paint14_linear_213_12)"/>
<path opacity="0.306122" d="M581.385 694.072C550.295 687.747 503.047 651.476 562.781 557.001C622.514 462.526 583.633 415.458 556.725 403.733C429.947 348.491 440.647 261.857 501.655 204.583C562.662 147.31 421.663 77.6815 366.249 49.6319" stroke="url(#paint15_linear_213_12)"/>
<path opacity="0.326531" d="M577.078 704.05C546.302 696.423 500.727 658.241 564.638 566.532C628.55 474.822 591.817 426.224 565.462 413.389C441.283 352.914 455.858 266.948 519.374 212.402C582.891 157.856 445.151 82.4276 391.048 52.1004" stroke="url(#paint16_linear_213_12)"/>
<path opacity="0.346939" d="M572.261 713.962C541.856 705.048 498.035 665.027 565.99 576.257C633.945 487.486 599.424 437.45 573.669 423.528C452.321 357.934 470.73 272.8 536.626 221.083C602.522 169.367 468.295 88.2815 415.603 55.7339" stroke="url(#paint17_linear_213_12)"/>
<path opacity="0.367347" d="M566.929 723.787C536.954 713.603 494.967 671.819 566.822 586.153C638.676 500.488 606.427 449.108 581.321 434.126C463.027 363.537 485.224 279.394 553.366 230.604C621.507 181.815 491.041 95.225 439.857 60.5184" stroke="url(#paint18_linear_213_12)"/>
<path opacity="0.387755" d="M561.095 733.503C531.605 722.068 491.527 678.599 567.131 596.199C642.735 513.799 612.813 461.172 588.402 445.158C473.383 369.706 499.313 286.712 569.561 240.94C639.81 195.169 513.345 103.238 463.764 66.4376" stroke="url(#paint19_linear_213_12)"/>
<path opacity="0.408163" d="M554.758 743.09C525.809 730.426 487.712 685.353 566.909 606.372C646.105 527.391 618.561 473.615 594.89 456.599C483.358 376.427 512.96 294.737 585.174 252.069C657.388 209.4 535.156 112.301 487.269 73.476" stroke="url(#paint20_linear_213_12)"/>
<path opacity="0.428571" d="M547.927 752.526C519.575 738.656 483.527 692.064 566.151 616.648C648.775 541.232 623.657 486.408 600.769 468.423C492.931 383.682 526.137 303.447 600.17 263.96C674.203 224.473 556.431 122.388 510.326 81.6117" stroke="url(#paint21_linear_213_12)"/>
<path opacity="0.44898" d="M540.611 761.79C512.908 746.742 478.973 698.717 564.856 627.006C650.738 555.294 628.086 499.524 606.025 480.602C502.079 391.451 538.815 312.821 614.518 276.588C690.221 240.355 577.125 133.475 532.886 90.8244" stroke="url(#paint22_linear_213_12)"/>
<path opacity="0.469388" d="M532.812 770.862C505.811 754.663 474.051 705.297 563.014 637.421C651.978 569.544 631.831 512.932 610.637 493.11C510.776 399.717 550.959 322.836 628.181 289.922C705.402 257.009 597.189 145.536 554.898 101.09" stroke="url(#paint23_linear_213_12)"/>
<path opacity="0.489796" d="M524.544 779.721C498.296 762.402 468.765 711.786 560.629 647.869C652.492 583.951 634.882 526.602 614.594 505.917C519.003 408.456 562.546 333.466 641.131 303.931C719.715 274.396 616.584 158.539 576.318 112.381" stroke="url(#paint24_linear_213_12)"/>
<path opacity="0.510204" d="M515.818 788.349C490.372 769.943 463.125 718.172 557.7 658.329C652.276 598.486 637.231 540.506 617.886 518.997C526.741 417.651 573.552 344.689 653.341 318.585C733.131 292.481 635.272 172.456 597.105 124.673" stroke="url(#paint25_linear_213_12)"/>
<path opacity="0.530612" d="M506.641 796.726C482.046 777.268 457.128 724.437 554.224 668.776C651.32 613.114 638.863 554.612 620.498 532.318C533.967 427.278 583.945 356.477 664.781 333.85C745.617 311.222 653.208 187.253 617.21 137.935" stroke="url(#paint26_linear_213_12)"/>
<path opacity="0.55102" d="M497.03 804.833C473.331 784.359 450.788 730.567 550.207 679.186C649.627 627.805 639.778 568.888 622.426 545.852C540.668 437.313 593.707 368.802 675.428 349.689C757.149 330.577 670.36 202.897 636.597 152.135" stroke="url(#paint27_linear_213_12)"/>
<path opacity="0.571429" d="M486.991 812.652C464.233 791.202 444.103 736.548 545.646 689.538C647.188 642.527 639.96 583.304 623.653 559.569C546.819 447.736 602.809 381.637 685.252 366.071C767.696 350.505 686.685 219.352 655.218 167.241" stroke="url(#paint28_linear_213_12)"/>
<path opacity="0.591837" d="M476.541 820.166C454.768 797.779 437.086 742.366 540.547 699.807C644.008 657.248 639.409 597.828 624.177 573.438C552.409 458.519 611.233 394.952 694.235 382.957C777.237 370.962 702.152 236.581 673.039 183.218" stroke="url(#paint29_linear_213_12)"/>
<path opacity="0.612245" d="M465.696 827.357C444.948 804.076 429.744 748.006 534.916 709.971C640.088 671.936 638.123 612.428 623.995 587.429C557.424 469.639 618.96 408.718 702.356 400.311C785.752 391.904 716.73 254.546 690.023 200.031" stroke="url(#paint30_linear_213_12)"/>
<path opacity="0.632653" d="M454.47 834.209C434.786 810.079 422.086 753.455 528.759 720.007C635.431 686.559 636.1 627.074 623.1 601.512C561.848 481.072 625.972 422.903 709.596 418.095C793.22 413.287 730.387 273.208 706.135 217.642" stroke="url(#paint31_linear_213_12)"/>
<path opacity="0.653061" d="M442.875 840.706C424.293 815.771 414.118 758.699 522.078 729.892C630.038 701.086 633.334 641.731 621.487 615.654C565.667 492.788 632.246 437.475 715.934 436.269C799.621 435.063 743.09 292.524 721.336 236.012" stroke="url(#paint32_linear_213_12)"/>
<path opacity="0.673469" d="M430.929 846.834C413.483 821.141 405.85 763.726 514.883 739.606C623.915 715.485 629.828 656.37 619.156 629.827C568.869 504.765 637.77 452.404 721.355 454.795C804.941 457.187 754.814 312.454 735.598 255.1" stroke="url(#paint33_linear_213_12)"/>
<path opacity="0.693878" d="M418.651 852.576C402.374 826.175 397.293 768.522 507.182 749.124C617.072 729.725 625.586 670.957 616.108 643.998C571.447 516.973 642.529 467.654 725.848 473.633C809.167 479.612 765.534 332.953 748.891 274.865" stroke="url(#paint34_linear_213_12)"/>
<path opacity="0.714286" d="M406.056 857.921C390.979 830.86 388.458 773.077 498.986 758.426C609.514 743.776 620.61 685.463 612.343 658.137C573.388 529.387 646.51 483.195 729.398 492.742C812.286 502.29 775.227 353.98 761.186 295.264" stroke="url(#paint35_linear_213_12)"/>
<path opacity="0.734694" d="M393.167 862.853C379.319 835.185 379.36 777.377 490.307 767.492C601.255 757.606 614.909 699.853 607.868 672.213C574.691 541.977 649.705 498.99 732 512.081C814.295 525.172 783.874 375.486 772.46 316.253" stroke="url(#paint36_linear_213_12)"/>
<path opacity="0.755102" d="M379.997 867.364C367.403 839.14 370.004 781.413 481.153 776.301C592.302 771.188 608.485 714.1 602.682 686.196C575.342 554.717 652.1 515.008 733.64 531.61C815.18 548.213 791.451 397.43 782.684 337.789" stroke="url(#paint37_linear_213_12)"/>
<path opacity="0.77551" d="M366.567 871.439C355.252 842.712 360.404 785.174 471.537 784.832C582.669 784.489 601.346 728.171 596.792 700.055C575.338 567.579 653.687 531.211 734.313 551.287C814.938 571.362 797.943 419.761 791.838 359.824" stroke="url(#paint38_linear_213_12)"/>
<path opacity="0.795918" d="M352.899 875.07C342.883 845.895 350.576 788.65 461.473 793.067C572.371 797.484 593.503 742.037 590.207 713.761C574.676 580.534 654.462 547.568 734.016 571.07C813.57 594.573 803.336 442.436 799.903 382.313" stroke="url(#paint39_linear_213_12)"/>
<path opacity="0.816327" d="M339.01 878.244C330.313 848.677 340.53 791.83 450.975 800.986C561.421 810.141 584.966 755.665 582.932 727.283C573.352 593.553 654.418 564.04 732.745 590.917C811.072 617.794 807.616 465.405 806.861 405.208" stroke="url(#paint40_linear_213_12)"/>
<path opacity="0.836735" d="M324.927 880.955C317.564 851.051 330.283 794.707 440.061 808.571C549.839 822.435 575.75 769.029 574.983 740.593C571.37 606.609 653.556 580.594 730.504 610.787C807.451 640.979 810.777 488.62 812.699 428.461" stroke="url(#paint41_linear_213_12)"/>
<path opacity="0.857143" d="M310.663 883.195C304.649 853.01 319.845 797.272 428.741 815.806C537.638 834.34 565.863 782.099 566.364 753.662C568.722 619.674 651.868 597.196 727.286 630.638C802.705 664.081 812.804 512.034 817.398 452.024" stroke="url(#paint42_linear_213_12)"/>
<path opacity="0.877551" d="M296.245 884.957C291.59 854.547 309.233 799.517 417.037 822.672C524.841 845.828 555.325 794.846 557.091 766.461C565.415 632.718 649.359 613.808 723.102 650.429C796.845 687.051 813.695 535.598 820.952 475.849" stroke="url(#paint43_linear_213_12)"/>
<path opacity="0.897959" d="M281.691 886.233C278.405 855.657 298.46 801.436 404.962 829.155C511.464 856.875 544.148 807.244 547.176 778.964C561.447 645.715 646.026 630.397 717.952 670.119C789.877 709.841 813.444 559.263 823.349 499.885" stroke="url(#paint44_linear_213_12)"/>
<path opacity="0.918367" d="M267.024 887.019C265.114 856.335 287.541 803.02 392.536 835.238C497.531 867.456 532.35 819.265 536.635 791.142C556.825 658.635 641.875 646.927 711.844 689.666C781.813 732.405 812.05 582.981 824.584 524.084" stroke="url(#paint45_linear_213_12)"/>
<path opacity="0.938776" d="M252.271 887.311C251.739 856.576 276.495 804.266 379.781 840.908C483.066 877.55 519.953 830.884 525.486 802.97C551.556 671.451 636.913 663.364 704.791 709.03C772.669 754.696 809.517 606.703 824.655 548.396" stroke="url(#paint46_linear_213_12)"/>
<path opacity="0.959184" d="M237.448 887.105C238.295 856.377 265.333 805.167 366.71 846.149C468.088 887.132 506.972 842.074 513.742 814.422C545.641 684.135 631.142 679.673 696.798 728.171C762.454 776.668 805.842 630.38 823.555 572.771" stroke="url(#paint47_linear_213_12)"/>
<path opacity="0.979592" d="M222.58 886.4C224.804 855.737 254.071 805.72 353.347 850.952C452.622 896.184 493.429 852.814 501.424 825.475C539.09 696.662 624.57 695.821 687.879 747.05C751.188 798.278 801.032 653.966 821.287 597.162" stroke="url(#paint48_linear_213_12)"/>
<path d="M207.689 885.193C211.287 854.653 242.728 805.919 339.712 855.301C436.695 904.683 479.347 863.078 488.55 836.102C531.912 709.003 617.209 711.773 678.05 765.626C738.89 819.48 795.096 677.41 817.853 621.515" stroke="url(#paint49_linear_213_12)"/>
<defs>
<linearGradient id="paint0_linear_213_12" x1="178.136" y1="423.747" x2="403.476" y2="275.48" gradientUnits="userSpaceOnUse">
<stop stop-color="white"/>
<stop offset="1" stop-color="white" stop-opacity="0.05"/>
</linearGradient>
<linearGradient id="paint1_linear_213_12" x1="187.671" y1="415.484" x2="419.646" y2="277.16" gradientUnits="userSpaceOnUse">
<stop stop-color="white"/>
<stop offset="1" stop-color="white" stop-opacity="0.05"/>
</linearGradient>
<linearGradient id="paint2_linear_213_12" x1="197.484" y1="407.769" x2="435.655" y2="279.718" gradientUnits="userSpaceOnUse">
<stop stop-color="white"/>
<stop offset="1" stop-color="white" stop-opacity="0.05"/>
</linearGradient>
<linearGradient id="paint3_linear_213_12" x1="207.544" y1="400.61" x2="451.452" y2="283.143" gradientUnits="userSpaceOnUse">
<stop stop-color="white"/>
<stop offset="1" stop-color="white" stop-opacity="0.05"/>
</linearGradient>
<linearGradient id="paint4_linear_213_12" x1="217.831" y1="394.018" x2="466.995" y2="287.425" gradientUnits="userSpaceOnUse">
<stop stop-color="white"/>
<stop offset="1" stop-color="white" stop-opacity="0.05"/>
</linearGradient>
<linearGradient id="paint5_linear_213_12" x1="228.315" y1="388" x2="482.238" y2="292.548" gradientUnits="userSpaceOnUse">
<stop stop-color="white"/>
<stop offset="1" stop-color="white" stop-opacity="0.05"/>
</linearGradient>
<linearGradient id="paint6_linear_213_12" x1="238.971" y1="382.562" x2="497.137" y2="298.493" gradientUnits="userSpaceOnUse">
<stop stop-color="white"/>
<stop offset="1" stop-color="white" stop-opacity="0.05"/>
</linearGradient>
<linearGradient id="paint7_linear_213_12" x1="249.771" y1="377.712" x2="511.649" y2="305.24" gradientUnits="userSpaceOnUse">
<stop stop-color="white"/>
<stop offset="1" stop-color="white" stop-opacity="0.05"/>
</linearGradient>
<linearGradient id="paint8_linear_213_12" x1="260.692" y1="373.454" x2="525.736" y2="312.768" gradientUnits="userSpaceOnUse">
<stop stop-color="white"/>
<stop offset="1" stop-color="white" stop-opacity="0.05"/>
</linearGradient>
<linearGradient id="paint9_linear_213_12" x1="271.703" y1="369.79" x2="539.355" y2="321.048" gradientUnits="userSpaceOnUse">
<stop stop-color="white"/>
<stop offset="1" stop-color="white" stop-opacity="0.05"/>
</linearGradient>
<linearGradient id="paint10_linear_213_12" x1="282.778" y1="366.725" x2="552.469" y2="330.055" gradientUnits="userSpaceOnUse">
<stop stop-color="white"/>
<stop offset="1" stop-color="white" stop-opacity="0.05"/>
</linearGradient>
<linearGradient id="paint11_linear_213_12" x1="293.889" y1="364.257" x2="565.042" y2="339.756" gradientUnits="userSpaceOnUse">
<stop stop-color="white"/>
<stop offset="1" stop-color="white" stop-opacity="0.05"/>
</linearGradient>
<linearGradient id="paint12_linear_213_12" x1="305.013" y1="362.39" x2="577.047" y2="350.123" gradientUnits="userSpaceOnUse">
<stop stop-color="white"/>
<stop offset="1" stop-color="white" stop-opacity="0.05"/>
</linearGradient>
<linearGradient id="paint13_linear_213_12" x1="316.117" y1="361.119" x2="588.444" y2="361.119" gradientUnits="userSpaceOnUse">
<stop stop-color="white"/>
<stop offset="1" stop-color="white" stop-opacity="0.05"/>
</linearGradient>
<linearGradient id="paint14_linear_213_12" x1="327.179" y1="360.444" x2="599.212" y2="372.711" gradientUnits="userSpaceOnUse">
<stop stop-color="white"/>
<stop offset="1" stop-color="white" stop-opacity="0.05"/>
</linearGradient>
<linearGradient id="paint15_linear_213_12" x1="338.171" y1="360.362" x2="609.325" y2="384.863" gradientUnits="userSpaceOnUse">
<stop stop-color="white"/>
<stop offset="1" stop-color="white" stop-opacity="0.05"/>
</linearGradient>
<linearGradient id="paint16_linear_213_12" x1="349.064" y1="360.867" x2="618.755" y2="397.537" gradientUnits="userSpaceOnUse">
<stop stop-color="white"/>
<stop offset="1" stop-color="white" stop-opacity="0.05"/>
</linearGradient>
<linearGradient id="paint17_linear_213_12" x1="359.837" y1="361.955" x2="627.489" y2="410.697" gradientUnits="userSpaceOnUse">
<stop stop-color="white"/>
<stop offset="1" stop-color="white" stop-opacity="0.05"/>
</linearGradient>
<linearGradient id="paint18_linear_213_12" x1="370.457" y1="363.618" x2="635.501" y2="424.304" gradientUnits="userSpaceOnUse">
<stop stop-color="white"/>
<stop offset="1" stop-color="white" stop-opacity="0.05"/>
</linearGradient>
<linearGradient id="paint19_linear_213_12" x1="380.906" y1="365.848" x2="642.783" y2="438.32" gradientUnits="userSpaceOnUse">
<stop stop-color="white"/>
<stop offset="1" stop-color="white" stop-opacity="0.05"/>
</linearGradient>
<linearGradient id="paint20_linear_213_12" x1="391.152" y1="368.639" x2="649.318" y2="452.708" gradientUnits="userSpaceOnUse">
<stop stop-color="white"/>
<stop offset="1" stop-color="white" stop-opacity="0.05"/>
</linearGradient>
<linearGradient id="paint21_linear_213_12" x1="401.174" y1="371.977" x2="655.097" y2="467.429" gradientUnits="userSpaceOnUse">
<stop stop-color="white"/>
<stop offset="1" stop-color="white" stop-opacity="0.05"/>
</linearGradient>
<linearGradient id="paint22_linear_213_12" x1="410.95" y1="375.855" x2="660.114" y2="482.447" gradientUnits="userSpaceOnUse">
<stop stop-color="white"/>
<stop offset="1" stop-color="white" stop-opacity="0.05"/>
</linearGradient>
<linearGradient id="paint23_linear_213_12" x1="420.449" y1="380.258" x2="664.356" y2="497.725" gradientUnits="userSpaceOnUse">
<stop stop-color="white"/>
<stop offset="1" stop-color="white" stop-opacity="0.05"/>
</linearGradient>
<linearGradient id="paint24_linear_213_12" x1="429.653" y1="385.175" x2="667.823" y2="513.226" gradientUnits="userSpaceOnUse">
<stop stop-color="white"/>
<stop offset="1" stop-color="white" stop-opacity="0.05"/>
</linearGradient>
<linearGradient id="paint25_linear_213_12" x1="438.541" y1="390.592" x2="670.515" y2="528.916" gradientUnits="userSpaceOnUse">
<stop stop-color="white"/>
<stop offset="1" stop-color="white" stop-opacity="0.05"/>
</linearGradient>
<linearGradient id="paint26_linear_213_12" x1="447.087" y1="396.494" x2="672.427" y2="544.76" gradientUnits="userSpaceOnUse">
<stop stop-color="white"/>
<stop offset="1" stop-color="white" stop-opacity="0.05"/>
</linearGradient>
<linearGradient id="paint27_linear_213_12" x1="455.275" y1="402.864" x2="673.563" y2="560.725" gradientUnits="userSpaceOnUse">
<stop stop-color="white"/>
<stop offset="1" stop-color="white" stop-opacity="0.05"/>
</linearGradient>
<linearGradient id="paint28_linear_213_12" x1="463.079" y1="409.688" x2="673.92" y2="576.78" gradientUnits="userSpaceOnUse">
<stop stop-color="white"/>
<stop offset="1" stop-color="white" stop-opacity="0.05"/>
</linearGradient>
<linearGradient id="paint29_linear_213_12" x1="470.483" y1="416.948" x2="673.504" y2="592.891" gradientUnits="userSpaceOnUse">
<stop stop-color="white"/>
<stop offset="1" stop-color="white" stop-opacity="0.05"/>
</linearGradient>
<linearGradient id="paint30_linear_213_12" x1="477.469" y1="424.625" x2="672.319" y2="609.03" gradientUnits="userSpaceOnUse">
<stop stop-color="white"/>
<stop offset="1" stop-color="white" stop-opacity="0.05"/>
</linearGradient>
<linearGradient id="paint31_linear_213_12" x1="484.02" y1="432.702" x2="670.371" y2="625.166" gradientUnits="userSpaceOnUse">
<stop stop-color="white"/>
<stop offset="1" stop-color="white" stop-opacity="0.05"/>
</linearGradient>
<linearGradient id="paint32_linear_213_12" x1="490.115" y1="441.157" x2="667.661" y2="641.27" gradientUnits="userSpaceOnUse">
<stop stop-color="white"/>
<stop offset="1" stop-color="white" stop-opacity="0.05"/>
</linearGradient>
<linearGradient id="paint33_linear_213_12" x1="495.74" y1="449.973" x2="664.196" y2="657.317" gradientUnits="userSpaceOnUse">
<stop stop-color="white"/>
<stop offset="1" stop-color="white" stop-opacity="0.05"/>
</linearGradient>
<linearGradient id="paint34_linear_213_12" x1="500.88" y1="459.126" x2="659.984" y2="673.276" gradientUnits="userSpaceOnUse">
<stop stop-color="white"/>
<stop offset="1" stop-color="white" stop-opacity="0.05"/>
</linearGradient>
<linearGradient id="paint35_linear_213_12" x1="505.521" y1="468.597" x2="655.031" y2="689.124" gradientUnits="userSpaceOnUse">
<stop stop-color="white"/>
<stop offset="1" stop-color="white" stop-opacity="0.05"/>
</linearGradient>
<linearGradient id="paint36_linear_213_12" x1="509.653" y1="478.362" x2="649.348" y2="704.832" gradientUnits="userSpaceOnUse">
<stop stop-color="white"/>
<stop offset="1" stop-color="white" stop-opacity="0.05"/>
</linearGradient>
<linearGradient id="paint37_linear_213_12" x1="513.259" y1="488.401" x2="642.936" y2="720.378" gradientUnits="userSpaceOnUse">
<stop stop-color="white"/>
<stop offset="1" stop-color="white" stop-opacity="0.05"/>
</linearGradient>
<linearGradient id="paint38_linear_213_12" x1="516.329" y1="498.689" x2="635.807" y2="735.733" gradientUnits="userSpaceOnUse">
<stop stop-color="white"/>
<stop offset="1" stop-color="white" stop-opacity="0.05"/>
</linearGradient>
<linearGradient id="paint39_linear_213_12" x1="518.856" y1="509.205" x2="627.97" y2="750.876" gradientUnits="userSpaceOnUse">
<stop stop-color="white"/>
<stop offset="1" stop-color="white" stop-opacity="0.05"/>
</linearGradient>
<linearGradient id="paint40_linear_213_12" x1="520.828" y1="519.923" x2="619.431" y2="765.78" gradientUnits="userSpaceOnUse">
<stop stop-color="white"/>
<stop offset="1" stop-color="white" stop-opacity="0.05"/>
</linearGradient>
<linearGradient id="paint41_linear_213_12" x1="522.242" y1="530.82" x2="610.204" y2="780.421" gradientUnits="userSpaceOnUse">
<stop stop-color="white"/>
<stop offset="1" stop-color="white" stop-opacity="0.05"/>
</linearGradient>
<linearGradient id="paint42_linear_213_12" x1="523.085" y1="541.873" x2="600.292" y2="794.776" gradientUnits="userSpaceOnUse">
<stop stop-color="white"/>
<stop offset="1" stop-color="white" stop-opacity="0.05"/>
</linearGradient>
<linearGradient id="paint43_linear_213_12" x1="523.357" y1="553.056" x2="589.712" y2="808.82" gradientUnits="userSpaceOnUse">
<stop stop-color="white"/>
<stop offset="1" stop-color="white" stop-opacity="0.05"/>
</linearGradient>
<linearGradient id="paint44_linear_213_12" x1="523.049" y1="564.346" x2="578.469" y2="822.529" gradientUnits="userSpaceOnUse">
<stop stop-color="white"/>
<stop offset="1" stop-color="white" stop-opacity="0.05"/>
</linearGradient>
<linearGradient id="paint45_linear_213_12" x1="522.159" y1="575.716" x2="566.576" y2="835.878" gradientUnits="userSpaceOnUse">
<stop stop-color="white"/>
<stop offset="1" stop-color="white" stop-opacity="0.05"/>
</linearGradient>
<linearGradient id="paint46_linear_213_12" x1="520.69" y1="587.143" x2="554.049" y2="848.843" gradientUnits="userSpaceOnUse">
<stop stop-color="white"/>
<stop offset="1" stop-color="white" stop-opacity="0.05"/>
</linearGradient>
<linearGradient id="paint47_linear_213_12" x1="518.634" y1="598.601" x2="540.896" y2="861.4" gradientUnits="userSpaceOnUse">
<stop stop-color="white"/>
<stop offset="1" stop-color="white" stop-opacity="0.05"/>
</linearGradient>
<linearGradient id="paint48_linear_213_12" x1="515.994" y1="610.068" x2="527.131" y2="873.525" gradientUnits="userSpaceOnUse">
<stop stop-color="white"/>
<stop offset="1" stop-color="white" stop-opacity="0.05"/>
</linearGradient>
<linearGradient id="paint49_linear_213_12" x1="512.771" y1="621.515" x2="512.771" y2="885.193" gradientUnits="userSpaceOnUse">
<stop stop-color="white"/>
<stop offset="1" stop-color="white" stop-opacity="0.05"/>
</linearGradient>
</defs>
</svg>
