<svg width="1150" height="1128" viewBox="0 0 1150 1128" fill="none" xmlns="http://www.w3.org/2000/svg">
<path opacity="0.01" d="M670.62 704.223C638.544 709.742 578.558 692.005 595.22 576.905C611.881 461.805 555.255 430.333 524.86 428.985C381.645 422.632 355.234 333.697 388.788 254.575C422.343 175.452 259.611 160.36 195.367 153.758" stroke="#313131"/>
<path opacity="0.0204082" d="M671.521 713.397C639.208 717.552 580.047 697.35 601.911 583.302C623.776 469.254 568.595 435.5 538.272 432.879C395.397 420.53 373.02 330.757 410.144 253.286C447.267 175.815 285.278 153.935 221.356 144.654" stroke="#313131"/>
<path opacity="0.0408163" d="M671.912 722.703C639.422 725.486 581.193 702.858 608.206 590.082C635.218 477.307 581.581 441.336 551.387 437.448C409.118 419.128 390.806 328.692 431.419 253.022C472.032 177.352 311.085 148.726 247.604 136.786" stroke="#313131"/>
<path opacity="0.0612245" d="M671.782 732.117C639.175 733.522 581.986 708.512 614.081 597.227C646.176 485.941 594.179 447.824 564.169 442.676C422.771 418.422 408.547 327.497 452.563 253.774C496.579 180.051 336.974 144.736 274.052 130.159" stroke="#313131"/>
<path opacity="0.0816327" d="M671.128 741.616C638.468 741.642 582.422 714.299 619.524 604.718C656.626 495.136 606.363 454.946 576.593 448.549C436.328 418.406 426.207 327.168 473.533 255.534C520.86 183.899 362.892 141.964 300.644 124.779" stroke="#313131"/>
<path opacity="0.102041" d="M669.946 751.179C637.293 749.825 582.493 720.201 624.517 612.534C666.542 504.867 618.101 462.681 588.627 455.047C449.756 419.075 443.744 327.699 494.282 258.29C544.82 188.882 388.782 140.406 327.324 120.647" stroke="#313131"/>
<path opacity="0.122449" d="M668.234 760.782C635.65 758.052 582.195 726.204 629.047 620.657C675.9 515.11 629.367 471.01 600.244 462.153C463.025 420.42 461.121 329.08 514.766 262.031C568.411 194.981 414.591 140.059 354.036 117.762" stroke="#313131"/>
<path opacity="0.142857" d="M665.989 770.404C633.535 766.302 581.523 732.29 633.1 629.066C684.677 525.841 640.135 479.909 611.417 469.847C476.105 422.434 478.3 331.304 534.94 266.742C591.581 202.179 440.263 140.915 380.725 116.123" stroke="#313131"/>
<path opacity="0.163265" d="M663.212 780.022C630.951 774.556 580.475 738.446 636.665 637.74C692.854 537.033 650.381 489.358 622.12 478.109C488.966 425.105 495.244 334.36 554.763 272.407C614.282 210.454 465.747 142.964 407.334 115.726" stroke="#313131"/>
<path opacity="0.183673" d="M659.904 789.613C627.895 782.793 579.048 744.653 639.728 646.656C700.408 548.659 660.079 499.331 632.329 486.916C501.58 428.423 511.915 338.234 574.191 279.008C636.466 219.782 490.988 146.195 433.809 116.56" stroke="#313131"/>
<path opacity="0.204082" d="M656.062 799.155C624.367 790.994 577.236 750.896 642.278 655.793C707.319 560.691 669.204 509.803 642.016 496.247C513.914 432.374 528.275 342.912 593.18 286.525C658.084 230.138 515.932 150.593 460.091 118.619" stroke="#313131"/>
<path opacity="0.22449" d="M651.69 808.624C620.368 799.138 575.039 757.158 644.303 665.129C713.568 573.099 677.733 520.748 651.157 506.076C525.94 436.944 544.288 348.378 611.689 294.936C679.089 241.494 540.525 156.141 486.126 121.888" stroke="#313131"/>
<path opacity="0.244898" d="M646.796 818C615.906 807.207 572.46 763.424 645.802 674.641C719.144 585.858 685.651 532.141 659.737 516.381C537.637 442.121 559.923 354.616 629.684 304.22C699.444 253.824 564.723 162.823 511.866 126.356" stroke="#313131"/>
<path opacity="0.265306" d="M641.379 827.26C610.978 815.179 569.494 769.675 646.76 684.305C724.025 598.934 692.932 543.953 667.728 527.133C548.971 447.886 575.141 361.607 647.119 314.35C719.097 267.093 588.468 170.617 537.251 132.004" stroke="#313131"/>
<path opacity="0.285714" d="M635.446 836.38C605.593 823.036 566.145 775.897 647.174 694.097C728.202 612.297 699.562 556.154 675.114 538.308C559.92 454.222 589.912 369.329 663.962 325.299C738.012 281.269 611.716 179.499 562.232 138.813" stroke="#313131"/>
<path opacity="0.306122" d="M629.005 845.342C599.756 830.758 562.415 782.072 647.038 703.995C731.661 625.917 705.523 568.718 681.876 549.879C570.458 461.112 604.203 377.763 680.175 337.041C756.148 296.319 634.417 189.447 586.758 146.764" stroke="#313131"/>
<path opacity="0.326531" d="M622.06 854.12C593.471 838.326 558.303 788.184 646.346 713.973C734.389 639.761 710.797 581.613 687.995 561.815C580.56 468.534 617.981 386.884 695.723 349.545C773.465 312.205 656.523 200.431 610.776 155.831" stroke="#313131"/>
<path opacity="0.346939" d="M614.623 862.699C586.747 845.723 553.815 794.219 645.097 724.01C736.38 653.8 715.372 594.811 693.457 574.092C590.203 476.472 631.218 396.672 710.573 362.783C789.928 328.893 677.99 212.426 634.239 165.993" stroke="#313131"/>
<path opacity="0.367347" d="M606.699 871.054C579.589 852.929 548.951 800.158 643.286 734.078C737.621 667.998 719.232 608.277 698.245 586.677C599.363 484.901 643.882 407.097 724.691 376.718C805.5 346.34 698.771 225.399 657.096 177.22" stroke="#313131"/>
<path opacity="0.387755" d="M598.302 879.165C572.009 859.925 543.72 805.987 640.915 744.156C738.11 682.325 722.369 621.983 702.349 599.541C608.021 493.801 655.948 418.135 738.049 391.321C820.15 364.507 718.826 239.318 679.305 189.483" stroke="#313131"/>
<path opacity="0.408163" d="M589.442 887.015C564.015 866.696 538.125 811.691 637.983 754.219C737.841 696.748 724.772 635.897 705.756 612.655C616.155 503.148 667.389 429.758 750.618 406.556C833.847 383.354 738.114 254.151 700.817 202.753" stroke="#313131"/>
<path opacity="0.428571" d="M580.129 894.582C555.617 873.223 532.171 817.253 634.489 764.242C736.807 711.232 726.431 649.984 708.453 625.987C623.746 512.918 678.177 441.938 762.368 422.386C846.559 402.834 756.592 269.86 721.589 216.996" stroke="#313131"/>
<path opacity="0.44898" d="M570.381 901.849C546.829 879.491 525.868 822.659 630.44 774.203C735.012 725.746 727.343 664.216 710.437 639.507C630.779 523.088 688.294 454.645 773.279 438.776C858.264 422.907 774.228 286.409 741.582 232.177" stroke="#313131"/>
<path opacity="0.469388" d="M560.202 908.797C537.655 885.481 519.215 827.893 625.83 784.075C732.446 740.256 727.493 678.555 711.689 653.182C637.227 533.631 697.707 467.848 783.318 455.687C868.928 443.525 790.975 303.759 760.746 248.26" stroke="#313131"/>
<path opacity="0.489796" d="M549.613 915.407C528.114 891.177 512.226 832.941 620.671 793.835C729.116 754.728 726.884 692.971 712.212 666.98C643.083 544.52 706.402 481.514 792.468 473.078C878.534 464.642 806.807 321.868 779.049 265.206" stroke="#313131"/>
<path opacity="0.510204" d="M538.63 921.666C518.219 896.568 504.91 837.79 614.968 803.461C725.025 769.132 725.514 707.431 712 680.872C648.331 555.732 714.36 495.615 800.71 490.915C887.061 486.214 821.691 340.698 796.454 282.978" stroke="#313131"/>
<path opacity="0.530612" d="M527.266 927.554C507.981 901.636 497.273 842.426 608.724 812.929C720.174 783.433 723.377 721.902 711.048 694.823C652.954 567.238 721.558 510.115 808.023 509.153C894.488 508.19 835.592 360.203 812.923 301.534" stroke="#313131"/>
<path opacity="0.55102" d="M515.542 933.058C497.42 906.369 489.331 846.835 601.952 822.217C714.573 797.599 720.481 736.35 709.358 708.803C656.946 579.01 727.986 524.981 814.394 527.752C900.803 530.523 848.488 380.342 828.428 320.831" stroke="#313131"/>
<path opacity="0.571429" d="M503.468 938.162C486.543 910.752 481.084 851.005 594.653 831.301C708.221 811.597 716.819 750.743 706.921 722.779C660.287 591.02 733.62 540.179 819.801 546.671C905.983 553.163 860.344 401.067 842.927 340.827" stroke="#313131"/>
<path opacity="0.591837" d="M491.068 942.852C475.371 914.772 472.551 854.922 586.842 840.159C701.133 825.397 712.399 765.048 703.746 736.718C662.975 603.24 738.453 555.674 824.238 565.868C910.023 576.062 871.141 422.334 856.4 361.476" stroke="#313131"/>
<path opacity="0.612245" d="M478.358 947.116C463.92 918.42 463.742 858.577 578.529 848.771C693.316 838.966 707.226 779.232 699.833 750.591C664.999 615.642 742.47 571.431 827.691 585.3C912.911 599.17 880.855 444.096 868.816 382.733" stroke="#313131"/>
<path opacity="0.632653" d="M465.362 950.941C452.21 921.683 454.67 861.956 569.727 857.116C684.784 852.275 701.309 793.264 695.189 764.364C666.354 628.196 745.665 587.414 830.154 604.925C914.642 622.436 889.469 466.305 880.152 404.551" stroke="#313131"/>
<path opacity="0.653061" d="M452.093 954.314C440.251 924.549 445.343 865.049 560.444 865.17C675.545 865.291 694.649 807.111 689.813 778.006C667.029 640.872 748.023 603.586 831.614 624.698C915.205 645.81 896.958 488.911 890.38 426.881" stroke="#313131"/>
<path opacity="0.673469" d="M438.573 957.226C428.064 927.011 435.776 867.847 550.694 872.917C665.613 877.986 687.257 820.742 683.715 791.487C667.022 653.643 749.539 619.913 832.069 644.577C914.599 669.242 903.31 511.867 899.482 449.677" stroke="#313131"/>
<path opacity="0.693878" d="M424.825 959.666C415.669 929.057 425.984 870.338 540.496 880.334C655.008 890.331 679.148 834.126 676.905 804.774C666.333 666.477 750.209 636.356 831.518 664.519C912.826 692.681 908.512 535.123 907.439 472.887" stroke="#313131"/>
<path opacity="0.714286" d="M410.868 961.626C403.082 930.681 415.979 872.514 529.86 887.405C643.742 902.296 670.33 847.232 669.389 817.839C664.955 679.346 750.027 652.88 829.955 684.478C909.884 716.077 912.551 558.628 914.234 496.462" stroke="#313131"/>
<path opacity="0.734694" d="M396.728 963.098C390.326 931.876 405.779 874.367 518.808 894.112C631.837 913.856 660.82 860.031 661.183 830.651C662.894 692.221 748.995 669.449 827.388 704.415C905.781 739.381 915.42 582.333 919.855 520.352" stroke="#313131"/>
<path opacity="0.755102" d="M382.421 964.074C377.415 932.634 395.392 875.889 507.35 900.435C619.307 924.982 650.628 872.494 652.294 843.182C660.144 705.071 747.106 686.024 823.812 724.283C900.518 762.542 917.108 606.186 924.286 544.506" stroke="#313131"/>
<path opacity="0.77551" d="M367.973 964.549C364.373 932.949 384.84 877.072 495.509 906.36C606.177 935.649 639.775 884.591 642.74 855.401C656.713 717.867 744.367 702.57 819.237 744.041C894.107 785.512 917.616 630.137 927.521 568.872" stroke="#313131"/>
<path opacity="0.795918" d="M353.404 964.517C351.217 932.818 374.133 877.91 483.299 911.871C592.465 945.833 628.274 896.296 632.533 867.283C652.599 730.581 740.776 719.052 813.666 763.646C886.557 808.241 916.936 654.137 929.549 593.399" stroke="#313131"/>
<path opacity="0.816327" d="M338.739 963.974C337.968 932.235 363.289 878.397 470.742 916.952C578.194 955.508 616.146 907.582 621.69 878.799C647.811 743.183 736.341 735.431 807.11 783.056C877.88 830.681 915.071 678.132 930.368 618.034" stroke="#313131"/>
<path opacity="0.836735" d="M324.004 962.916C324.651 931.198 352.329 878.527 457.862 921.59C563.395 964.652 603.415 918.421 610.233 889.922C642.359 755.645 731.071 751.672 799.584 802.229C868.097 852.785 912.028 702.074 929.979 642.727" stroke="#313131"/>
<path opacity="0.857143" d="M309.214 961.342C311.278 929.704 341.258 878.296 444.669 925.77C548.081 973.244 590.093 928.79 598.172 900.628C636.241 767.939 724.965 767.74 791.09 821.123C857.216 874.506 907.802 725.911 928.372 667.426" stroke="#313131"/>
<path opacity="0.877551" d="M294.397 959.25C297.874 927.752 330.1 877.701 431.192 929.482C532.284 981.263 576.208 938.664 585.533 910.891C629.472 780.036 718.038 783.601 781.649 839.7C845.261 895.798 902.405 749.595 925.556 692.079" stroke="#313131"/>
<path opacity="0.897959" d="M279.577 956.64C284.459 925.341 318.869 876.737 417.449 932.713C516.029 988.689 561.781 948.019 572.335 920.688C622.06 791.91 710.3 799.218 771.276 857.918C832.252 916.617 895.846 773.075 921.533 716.634" stroke="#313131"/>
<path opacity="0.918367" d="M264.774 953.512C271.053 922.471 307.582 875.403 403.463 935.453C499.344 995.502 546.837 956.835 558.599 929.995C614.016 803.532 701.762 814.559 759.987 875.739C818.212 936.918 888.135 796.302 916.309 741.042" stroke="#313131"/>
<path opacity="0.938776" d="M250.016 949.869C257.681 919.145 296.26 873.697 389.26 937.693C482.26 1001.69 531.405 965.09 544.352 938.792C605.356 814.88 692.443 829.591 747.806 893.125C803.17 956.66 879.29 819.23 909.898 765.251" stroke="#313131"/>
<path opacity="0.959184" d="M235.322 945.712C244.357 915.363 284.913 871.617 374.857 939.424C464.802 1007.23 515.505 972.764 529.613 947.055C596.088 825.923 682.352 844.279 734.75 910.039C787.148 975.799 869.321 841.809 902.305 789.211" stroke="#313131"/>
<path opacity="0.979592" d="M220.716 941.046C231.104 911.13 273.56 869.165 360.28 940.639C447 1012.11 499.167 979.839 514.41 954.768C586.231 836.641 671.508 858.595 720.843 926.446C770.177 994.297 858.247 863.995 893.545 812.874" stroke="#313131"/>
<path d="M206.222 935.875C217.944 906.447 262.221 866.34 345.554 941.332C428.888 1016.32 482.419 986.298 498.768 961.911C575.799 847.007 659.931 872.505 706.11 942.31C752.289 1012.11 846.091 885.74 883.636 836.191" stroke="#313131"/>
</svg>
